<mxfile host="app.diagrams.net" agent="Mozilla/5.0 (X11; Linux x86_64) AppleWebKit/537.36 (KHTML, like Gecko) Chrome/130.0.0.0 Safari/537.36" version="26.0.7">
  <diagram name="Page-1" id="SxQWB91CpDf6l4SoAh40">
    <mxGraphModel dx="1858" dy="878" grid="1" gridSize="10" guides="1" tooltips="1" connect="1" arrows="1" fold="1" page="1" pageScale="1" pageWidth="1169" pageHeight="1654" math="0" shadow="0">
      <root>
        <mxCell id="0" />
        <mxCell id="1" parent="0" />
        <mxCell id="G6bsQFipVQSb53bt1CX9-3" value="Pilot/Crew" style="shape=umlActor;html=1;verticalLabelPosition=bottom;verticalAlign=top;align=center;" vertex="1" parent="1">
          <mxGeometry x="1030" y="860" width="30" height="60" as="geometry" />
        </mxCell>
        <mxCell id="G6bsQFipVQSb53bt1CX9-4" value="Front-desk Officer" style="shape=umlActor;html=1;verticalLabelPosition=bottom;verticalAlign=top;align=center;" vertex="1" parent="1">
          <mxGeometry x="1030" y="210" width="30" height="60" as="geometry" />
        </mxCell>
        <mxCell id="G6bsQFipVQSb53bt1CX9-5" value="Customer" style="shape=umlActor;html=1;verticalLabelPosition=bottom;verticalAlign=top;align=center;" vertex="1" parent="1">
          <mxGeometry x="100" y="540" width="30" height="60" as="geometry" />
        </mxCell>
        <mxCell id="G6bsQFipVQSb53bt1CX9-6" value="System" style="shape=umlActor;html=1;verticalLabelPosition=bottom;verticalAlign=top;align=center;" vertex="1" parent="1">
          <mxGeometry x="1030" y="450" width="30" height="60" as="geometry" />
        </mxCell>
        <mxCell id="G6bsQFipVQSb53bt1CX9-7" value="Admin" style="shape=umlActor;html=1;verticalLabelPosition=bottom;verticalAlign=top;align=center;" vertex="1" parent="1">
          <mxGeometry x="1030" y="660" width="30" height="60" as="geometry" />
        </mxCell>
        <mxCell id="G6bsQFipVQSb53bt1CX9-14" value="" style="swimlane;startSize=0;" vertex="1" parent="1">
          <mxGeometry x="284" y="110" width="646" height="1050" as="geometry" />
        </mxCell>
        <mxCell id="G6bsQFipVQSb53bt1CX9-21" value="Search Flights" style="ellipse;whiteSpace=wrap;html=1;" vertex="1" parent="G6bsQFipVQSb53bt1CX9-14">
          <mxGeometry x="253" y="120" width="140" height="70" as="geometry" />
        </mxCell>
        <mxCell id="G6bsQFipVQSb53bt1CX9-20" value="Make Payment for Reservation" style="ellipse;whiteSpace=wrap;html=1;" vertex="1" parent="G6bsQFipVQSb53bt1CX9-14">
          <mxGeometry x="253" y="560" width="140" height="70" as="geometry" />
        </mxCell>
        <mxCell id="G6bsQFipVQSb53bt1CX9-19" value="Use Case" style="ellipse;whiteSpace=wrap;html=1;" vertex="1" parent="G6bsQFipVQSb53bt1CX9-14">
          <mxGeometry x="253" y="270" width="140" height="70" as="geometry" />
        </mxCell>
        <mxCell id="G6bsQFipVQSb53bt1CX9-25" value="Assign Pilots and Crews" style="ellipse;whiteSpace=wrap;html=1;" vertex="1" parent="G6bsQFipVQSb53bt1CX9-14">
          <mxGeometry x="253" y="800" width="140" height="70" as="geometry" />
        </mxCell>
        <mxCell id="G6bsQFipVQSb53bt1CX9-24" value="Update Flight Schedule" style="ellipse;whiteSpace=wrap;html=1;" vertex="1" parent="G6bsQFipVQSb53bt1CX9-14">
          <mxGeometry x="253" y="682" width="140" height="70" as="geometry" />
        </mxCell>
        <mxCell id="G6bsQFipVQSb53bt1CX9-23" value="Use Case" style="ellipse;whiteSpace=wrap;html=1;" vertex="1" parent="G6bsQFipVQSb53bt1CX9-14">
          <mxGeometry x="253" y="920" width="140" height="70" as="geometry" />
        </mxCell>
        <mxCell id="G6bsQFipVQSb53bt1CX9-22" value="Assign Seats to Passenger" style="ellipse;whiteSpace=wrap;html=1;" vertex="1" parent="G6bsQFipVQSb53bt1CX9-14">
          <mxGeometry x="253" y="410" width="140" height="70" as="geometry" />
        </mxCell>
        <mxCell id="G6bsQFipVQSb53bt1CX9-18" value="&lt;font style=&quot;font-size: 22px;&quot;&gt;Airline Management System&lt;/font&gt;" style="text;html=1;align=center;verticalAlign=middle;resizable=0;points=[];autosize=1;strokeColor=none;fillColor=none;" vertex="1" parent="1">
          <mxGeometry x="435" y="50" width="300" height="40" as="geometry" />
        </mxCell>
      </root>
    </mxGraphModel>
  </diagram>
</mxfile>
